<?xml version="1.0" encoding="UTF-8" standalone="no"?>
<!-- Created with Inkscape (http://www.inkscape.org/) -->

<svg
   width="500"
   height="500"
   viewBox="0 0 132.29167 132.29167"
   version="1.1"
   id="svg5"
   xmlns="http://www.w3.org/2000/svg"
   xmlns:svg="http://www.w3.org/2000/svg"
   xmlns:rdf="http://www.w3.org/1999/02/22-rdf-syntax-ns#"
   xmlns:cc="http://creativecommons.org/ns#"
   xmlns:dc="http://purl.org/dc/elements/1.1/">
  <title
     id="title21277">JCPS Logo</title>
  <defs
     id="defs2" />
  <g
     id="layer8"
     style="display:inline">
    <circle
       style="fill:#ffffff;fill-opacity:1;stroke:#014559;stroke-width:2.64583;stroke-miterlimit:4;stroke-dasharray:none;stroke-opacity:1;paint-order:fill markers stroke"
       id="path131906"
       cx="66.145836"
       cy="66.145836"
       r="66.145836" />
  </g>
  <g
     id="layer6"
     style="display:inline">
    <ellipse
       style="fill:#92e2f3;fill-opacity:1;stroke:none;stroke-width:0.264583;stroke-linecap:square;stroke-linejoin:miter;stroke-miterlimit:4;stroke-dasharray:none;stroke-opacity:1;paint-order:fill markers stroke"
       id="path49911"
       cx="66.145836"
       cy="114.96146"
       rx="35.71875"
       ry="1.984375" />
    <ellipse
       style="display:inline;fill:#ffffff;fill-opacity:1;stroke:none;stroke-width:0.264583;stroke-linecap:square;stroke-linejoin:miter;stroke-miterlimit:4;stroke-dasharray:none;stroke-opacity:1;paint-order:fill markers stroke"
       id="path50888"
       cx="66.145836"
       cy="107.81771"
       rx="33.072918"
       ry="6.7468748" />
    <path
       style="fill:#92e2f3;fill-opacity:1;stroke:none;stroke-width:0.264583px;stroke-linecap:butt;stroke-linejoin:miter;stroke-opacity:1;paint-order:fill markers stroke"
       d="m 42.333334,103.1875 2.910417,2.11667 c -1.322917,0 -5.027083,2.11667 -5.027083,3.175 0,1.05833 2.910416,2.91042 2.910416,2.91042 l -2.910416,-0.79375 -3.439584,-1.32292 -1.058333,-2.38125 2.645833,-2.11667 3.96875,-1.5875"
       id="path29011" />
    <path
       style="fill:#92e2f3;fill-opacity:1;stroke:none;stroke-width:0.264583px;stroke-linecap:butt;stroke-linejoin:miter;stroke-opacity:1"
       d="m 89.958336,103.1875 c 0,0 -2.116667,0.79375 -3.175,1.05834 -1.058334,0 -1.852084,-0.79375 -1.852084,-0.79375 l -2.910417,2.38125 -2.645833,1.32291 2.645833,1.32292 v 1.32292 c 0,0 -3.96875,-1e-5 -3.96875,1.32291 0,1.32292 -5.027083,2.11667 -6.085417,2.64584 -1.058334,0.52917 5.291667,0 5.291667,0 l 8.466667,-1.32292 5.55625,-1.5875 2.645834,-1.05833 1.852083,-1.5875 0.264583,-1.32292 -1.058333,-1.5875 -2.645833,-1.32292 -2.38125,-0.79375"
       id="path49000" />
    <ellipse
       style="display:inline;fill:#014559;fill-opacity:1;stroke:#014559;stroke-width:0.264583;stroke-linecap:square;stroke-linejoin:miter;stroke-miterlimit:4;stroke-dasharray:none;stroke-opacity:1"
       id="path14957"
       cx="66.145836"
       cy="109.00834"
       rx="18.520834"
       ry="2.6458335" />
    <path
       style="fill:#ffffff;fill-opacity:1;stroke:#000000;stroke-width:0.264583px;stroke-linecap:butt;stroke-linejoin:miter;stroke-opacity:1"
       d="m 42.333334,83.343752 5.291667,1.322917 18.520834,1.322917 c 0,0 17.197917,-1.322917 18.520834,-1.322917 1.322917,0 5.291667,-1.322917 5.291667,-1.322917 v 7.9375 l -1.322917,5.291667 -6.614584,7.937501 -7.9375,3.96875 -7.9375,1.32292 -10.583334,-2.64584 c 0,0 -2.645833,-1.32291 -3.96875,-1.32291 -1.322916,0 -6.614583,-7.937504 -6.614583,-7.937504 l -2.645834,-7.9375 v -6.614584"
       id="path28886" />
    <path
       style="fill:#92e2f3;fill-opacity:1;stroke:none;stroke-width:0.264583px;stroke-linecap:butt;stroke-linejoin:miter;stroke-opacity:1"
       d="M 63.500002,108.47917 C 84.666669,104.51042 82.020835,84.666669 82.020835,84.666669 l 7.937501,-1.322917 v 3.96875 l -1.322917,9.260417 -6.614584,7.937501 -7.9375,3.96875 -7.9375,1.32292 z"
       id="path128347" />
  </g>
  <g
     id="layer2"
     style="display:inline">
    <path
       style="fill:#ff5300;fill-opacity:1;stroke:#ff5300;stroke-width:0.264583;stroke-miterlimit:4;stroke-dasharray:none;stroke-opacity:1"
       d="m 62.441668,83.872919 c 0,0 0.79375,2.645833 0.691207,1.88474 0.5537,-6.63e-4 3.189349,-0.561828 5.129627,-0.561828 l -0.0014,-1.840333 z"
       id="path27585" />
    <path
       style="fill:#ff5300;fill-opacity:1;stroke:none;stroke-width:0.264583px;stroke-linecap:butt;stroke-linejoin:miter;stroke-opacity:1"
       d="m 56.885418,83.343752 0.264583,1.852083 2.69131,-0.200504 -0.310059,-1.651579"
       id="path26552" />
    <path
       style="fill:none;stroke:#014559;stroke-width:2.64583;stroke-linecap:round;stroke-linejoin:round;stroke-miterlimit:4;stroke-dasharray:none;stroke-opacity:1;paint-order:normal"
       d="m 42.333334,82.020835 c -1.322916,10.583334 2.645834,26.458335 22.489584,27.781255"
       id="path21064" />
    <path
       style="fill:none;stroke:#014559;stroke-width:2.64583;stroke-linecap:round;stroke-linejoin:round;stroke-miterlimit:4;stroke-dasharray:none;stroke-opacity:1;paint-order:normal"
       d="M 89.958336,82.020827 C 91.281252,92.604161 87.312502,108.47917 67.468752,109.80209"
       id="path21064-0" />
    <ellipse
       style="fill:none;stroke:#014559;stroke-width:2.64583;stroke-miterlimit:4;stroke-dasharray:none"
       id="path3049"
       cx="66.145836"
       cy="82.020836"
       rx="23.8125"
       ry="3.96875" />
    <path
       style="fill:none;stroke:#014559;stroke-width:2.64583;stroke-linecap:butt;stroke-linejoin:miter;stroke-miterlimit:4;stroke-dasharray:none;stroke-opacity:1"
       d="m 64.822918,109.80209 h 2.645834"
       id="path3164" />
    <path
       style="fill:none;stroke:#014559;stroke-width:2.64583;stroke-linecap:butt;stroke-linejoin:miter;stroke-miterlimit:4;stroke-dasharray:none;stroke-opacity:1"
       d="m 89.958336,84.666668 c 3.439583,10e-7 6.35,3.175001 6.35,7.408334 0,4.233334 -3.96875,8.466668 -10.31875,8.466668"
       id="path3749" />
    <path
       style="fill:#014559;fill-opacity:1;stroke:#014559;stroke-width:0.264583px;stroke-linecap:square;stroke-linejoin:miter;stroke-opacity:1"
       d="m 42.333334,103.1875 c 0,0 -15.875,2.64584 -6.614583,7.9375 9.260417,5.29167 22.489584,5.29167 30.427084,5.29167 v -2.64583 c -15.875,0 -26.458334,-2.64584 -29.104167,-5.29167 -2.645834,-2.64583 5.291666,-5.29167 5.291666,-5.29167 z"
       id="path11458" />
    <path
       style="display:inline;fill:#014559;fill-opacity:1;stroke:#014559;stroke-width:0.264583px;stroke-linecap:square;stroke-linejoin:miter;stroke-opacity:1"
       d="m 89.958336,103.1875 c 0,0 15.875004,2.64584 6.614584,7.9375 -9.260418,5.29167 -22.489584,5.29167 -30.427085,5.29167 v -2.64583 c 15.875,0 26.458334,-2.64584 29.104167,-5.29167 2.645834,-2.64583 -5.291666,-5.29167 -5.291666,-5.29167 z"
       id="path11458-8" />
  </g>
  <g
     id="layer7"
     style="display:inline">
    <path
       style="fill:#ff5300;fill-opacity:1;stroke:none;stroke-width:0.264583px;stroke-linecap:butt;stroke-linejoin:miter;stroke-opacity:1"
       d="m 31.750001,26.458334 c 0,0 -0.88451,4.219251 0.529166,7.9375 1.413676,3.718249 5.556251,9.260417 10.054167,11.90625 4.497916,2.645833 8.169362,3.355482 10.318751,6.085417 2.149388,2.729936 2.910416,5.027084 2.910416,8.466667 0,3.439584 -0.855153,5.896451 -1.852083,7.408334 -0.996929,1.511883 -2.048614,2.598842 -3.439583,3.175 -1.390969,0.576158 -5.291667,0 -5.291667,0 0,0 2.916518,-1.453885 3.96875,-2.645834 0.39154,-0.443529 0.529167,-0.79375 0.79375,-1.5875 -2.911777,0.718864 -4.497917,1.058334 -7.672917,1.058334 -3.175,0 -6.793392,-2.059336 -8.995831,-3.704171 -2.20244,-1.644835 -3.968751,-5.027083 -3.968751,-5.027083 0,0 6.879166,3.175004 10.054165,3.175004 3.175,0 6.085418,-0.529167 7.143751,-1.058334 1.058334,-0.529166 2.116666,-1.5875 2.116666,-2.645833 -0.529166,0.264583 -3.323863,0.880987 -5.027081,1.058329 -1.140363,0.118736 -2.307861,0.183653 -3.439584,0 -2.752941,-0.446741 -5.593694,-1.134267 -7.9375,-2.645833 C 29.287298,55.6557 26.722548,52.932709 25.400001,50.270835 24.077453,47.60896 23.812503,42.33333 23.812503,42.33333 c 0,0 4.611023,5.896236 7.672916,7.937501 4.762499,3.175004 8.731248,3.968755 10.054165,3.968754 1.322917,0 3.704167,0.264583 3.704167,-1.322917 -1.058333,-0.264583 -2.357711,-0.579244 -3.96875,-1.058333 -1.61104,-0.479088 -3.574014,-1.248538 -5.55625,-2.38125 -1.982237,-1.132712 -3.914546,-2.829889 -5.291665,-4.762505 -1.444878,-2.027707 -2.629147,-4.559284 -2.910419,-6.879162 -0.281271,-2.319878 -0.271591,-4.552716 0.529169,-6.614588 0.728079,-1.874726 3.704167,-4.7625 3.704167,-4.7625 z"
       id="path51480" />
    <path
       style="display:inline;fill:#ff5300;fill-opacity:1;stroke:none;stroke-width:0.264583px;stroke-linecap:butt;stroke-linejoin:miter;stroke-opacity:1"
       d="m 100.54167,26.458334 c 0,0 0.88451,4.219251 -0.52917,7.9375 -1.413673,3.718249 -5.556248,9.260417 -10.054164,11.90625 -4.497916,2.645833 -8.169362,3.355482 -10.318751,6.085417 -2.149388,2.729936 -2.910416,5.027084 -2.910416,8.466667 0,3.439584 0.855153,5.896451 1.852083,7.408334 0.996929,1.511883 2.048614,2.598842 3.439583,3.175 1.390969,0.576158 5.291667,0 5.291667,0 0,0 -2.916518,-1.453885 -3.96875,-2.645834 -0.39154,-0.443529 -0.529167,-0.79375 -0.79375,-1.5875 2.911777,0.718864 4.497917,1.058334 7.672917,1.058334 3.175,0 6.793392,-2.059336 8.995831,-3.704171 2.20244,-1.644835 3.96875,-5.027083 3.96875,-5.027083 0,0 -6.879165,3.175004 -10.054164,3.175004 -3.175,0 -6.085418,-0.529167 -7.143751,-1.058334 -1.058334,-0.529166 -2.116666,-1.5875 -2.116666,-2.645833 0.529166,0.264583 3.323863,0.880987 5.027081,1.058329 1.140363,0.118736 2.307861,0.183653 3.439584,0 2.752941,-0.446741 5.593694,-1.134267 7.937496,-2.645833 2.72729,-1.758881 5.29204,-4.481872 6.61459,-7.143746 1.32255,-2.661875 1.5875,-7.937505 1.5875,-7.937505 0,0 -4.61103,5.896236 -7.67292,7.937501 -4.762498,3.175004 -8.731247,3.968755 -10.054164,3.968754 -1.322917,0 -3.704167,0.264583 -3.704167,-1.322917 1.058333,-0.264583 2.357711,-0.579244 3.96875,-1.058333 1.61104,-0.479088 3.574014,-1.248538 5.55625,-2.38125 1.982237,-1.132712 3.914551,-2.829889 5.291661,-4.762505 1.44488,-2.027707 2.62915,-4.559284 2.91042,-6.879162 0.28127,-2.319878 0.27159,-4.552716 -0.52917,-6.614588 -0.72807,-1.874726 -3.70416,-4.7625 -3.70416,-4.7625 z"
       id="path51480-8" />
    <path
       style="fill:#ff5300;fill-opacity:1;stroke:#ffffff;stroke-width:0.264583;stroke-linecap:butt;stroke-linejoin:miter;stroke-miterlimit:4;stroke-dasharray:none;stroke-opacity:1"
       d="m 56.885418,84.137502 c -1.058334,-2.38125 -1.710597,-3.592367 -1.5875,-7.408333 0.123097,-3.815967 3.887108,-7.529347 4.7625,-10.054167 0.875393,-2.524821 1.322917,-6.085417 0.264582,-8.466667 -1.34644,-3.029486 -2.628072,-6.361915 -2.645834,-8.995834 -0.01776,-2.633919 0.529167,-3.704167 1.852084,-6.085417 -1.058334,0 -6.350001,0 -6.614584,-5.820833 2.910417,2.645833 5.820833,2.645833 8.202084,2.116667 -1.852084,-0.79375 -3.968751,-3.175 -3.968751,-5.55625 0,-2.38125 1.852084,-4.762501 1.852084,-4.762501 0,0 0.529166,3.968751 1.852085,5.291667 1.322919,1.322917 2.645834,1.852084 6.614584,2.38125 3.96875,0.529167 4.5988,1.159213 5.291667,3.175 1.058333,5.027084 -3.054974,5.396706 -3.175,8.731251 0,1.058333 0.264583,1.5875 2.910416,4.233333 2.645834,2.645833 3.704167,3.704167 4.7625,5.820833 1.058334,2.116667 1.852084,4.233334 1.852084,6.614584 0,1.852083 -1.149501,7.61469 -4.497917,10.847917 -0.529167,0.529167 -4.233334,3.439583 -5.55625,5.291667 -0.647929,0.894899 -0.529167,2.645833 -0.529167,2.645833 z"
       id="path72738" />
    <path
       style="fill:#ffffff;stroke:none;stroke-width:0.264583px;stroke-linecap:butt;stroke-linejoin:miter;stroke-opacity:1"
       d="m 64.211553,42.016387 c 1.22315,-1.806708 2.049466,-2.858053 5.373865,-2.328886 -1.046573,2.003748 -3.723276,2.981383 -5.373865,2.328886 z"
       id="path69785" />
    <path
       style="fill:#014559;fill-opacity:1;stroke:none;stroke-width:0.264583px;stroke-linecap:butt;stroke-linejoin:miter;stroke-opacity:1"
       d="m 72.495835,42.862501 c -0.529167,-2.38125 -0.399221,-3.103985 -1.5875,-5.027083 3.251081,-1.54314 5.547562,-2.354156 7.592765,-1.106154 -4.892469,1.566972 -6.005265,6.133237 -6.005265,6.133237 z"
       id="path71233" />
    <path
       style="fill:#ffffff;stroke:none;stroke-width:0.264583px;stroke-linecap:butt;stroke-linejoin:miter;stroke-opacity:1"
       d="m 68.791668,56.885418 c 0,0 3.175,5.027084 3.175,8.202084 0,3.175 -1.5875,5.55625 -3.401121,7.516265 -1.513828,1.636023 -3.741662,3.17807 -4.859427,5.297685 -0.868741,1.647391 -1.264452,5.4423 -1.264452,5.4423 v 1.058333 l -2.701643,0.04134 -0.208773,-1.099674 c 0,0 0.04752,-2.225353 0.264583,-3.175 0.335818,-1.469176 0.785119,-2.957623 1.5875,-4.233333 1.560883,-2.481657 4.396605,-3.953568 6.085417,-6.350001 1.022416,-1.450814 2.088763,-3.011887 2.38125,-4.7625 0.439873,-2.632755 -1.058334,-7.9375 -1.058334,-7.937499 z"
       id="path92749" />
    <path
       style="fill:none;stroke:#ffffff;stroke-width:2.64583;stroke-linecap:butt;stroke-linejoin:bevel;stroke-miterlimit:4;stroke-dasharray:none;stroke-opacity:1"
       d="m 76.729169,55.562501 c 5.291666,7.937501 3.175,13.229167 2.116666,17.197918"
       id="path107171" />
    <path
       style="display:inline;fill:none;fill-opacity:1;stroke:#ffffff;stroke-width:2.64583;stroke-linecap:butt;stroke-linejoin:bevel;stroke-miterlimit:4;stroke-dasharray:none;stroke-opacity:1"
       d="m 78.052085,73.818752 c -1.058333,1.852083 -2.38125,3.175 -4.084304,4.603784 -1.599453,1.341868 -3.059446,2.539966 -3.853196,3.862883"
       id="path107171-0" />
    <path
       style="display:inline;fill:none;stroke:#ffffff;stroke-width:2.64583;stroke-linecap:butt;stroke-linejoin:bevel;stroke-miterlimit:4;stroke-dasharray:none;stroke-opacity:1"
       d="m 55.827085,71.437502 c -2.38125,3.175 -2.116667,8.995833 -0.79375,11.377083"
       id="path107171-0-6" />
    <path
       style="display:inline;fill:#ff5300;fill-opacity:1"
       d="m 82.020835,37.041669 c 0,0 2.466966,-1.543602 2.645834,-2.645834 0.178868,-1.102232 -1.322917,-1.659789 -1.322917,-2.645833 0,-0.986044 1.322917,-2.645835 1.322917,-2.645835 0,0 -2.466966,1.543603 -2.645834,2.645835 -0.178868,1.102232 1.322917,1.659789 1.322917,2.645833 0,0.986044 -1.322917,2.645834 -1.322917,2.645834 z"
       id="path125743-4-6" />
    <path
       style="display:inline;fill:#ff5300;fill-opacity:1"
       d="m 47.625001,37.041668 c 0,0 -2.466966,-1.543602 -2.645834,-2.645834 -0.178868,-1.102232 1.322917,-1.659789 1.322917,-2.645833 0,-0.986044 -1.322917,-2.645834 -1.322917,-2.645834 0,0 2.466966,1.543602 2.645834,2.645834 0.178868,1.102232 -1.322917,1.659789 -1.322917,2.645833 0,0.986044 1.322917,2.645834 1.322917,2.645834 z"
       id="path125743-47" />
    <path
       style="display:inline;fill:#ff5300;fill-opacity:1"
       d="m 54.907691,31.53632 c 0,0 -2.466966,-1.543602 -2.645834,-2.645834 -0.178868,-1.102232 1.322917,-1.659789 1.322917,-2.645833 0,-0.986044 -1.322917,-2.645834 -1.322917,-2.645834 0,0 2.466966,1.543602 2.645834,2.645834 0.178868,1.102232 -1.322917,1.659789 -1.322917,2.645833 0,0.986044 1.322917,2.645834 1.322917,2.645834 z"
       id="path125743-47-4" />
    <path
       style="fill:#ff5300;fill-opacity:1;stroke:none;stroke-width:0.264583px;stroke-linecap:butt;stroke-linejoin:miter;stroke-opacity:1"
       d="m 56.885418,83.608335 0.134571,0.678502 2.246679,0.115248 0.483986,0.10863 -0.138787,-0.757717 z"
       id="path31879" />
    <path
       style="fill:#ff5300;fill-opacity:1;stroke:none;stroke-width:0.264583px;stroke-linecap:butt;stroke-linejoin:miter;stroke-opacity:1"
       d="m 62.441668,83.872919 -2.3e-5,0.423929 5.953126,0.1184 -0.0092,-0.640752 z"
       id="path33269" />
    <path
       style="display:inline;fill:#ff5300;fill-opacity:1;stroke:none;stroke-width:0.108907px;stroke-linecap:butt;stroke-linejoin:miter;stroke-opacity:1"
       d="m 67.634926,11.351018 c -3.267229,0.544538 -4.741482,4.064814 -4.029583,7.541853 0.762354,3.348909 5.118659,3.893447 4.574121,9.883367 1.089076,-1.089077 2.178153,-2.722691 2.178153,-4.356306 0,-1.633614 -0.544539,-3.267228 -1.633615,-4.356304 -2.348207,-2.547184 -3.267229,-5.445382 -1.089076,-8.71261 z"
       id="path36436" />
    <path
       style="display:inline;fill:#ff5300;fill-opacity:1;stroke:none;stroke-width:0.108907px;stroke-linecap:butt;stroke-linejoin:miter;stroke-opacity:1"
       d="m 62.189544,17.885475 c -0.544538,0.544538 -2.72269,4.356305 0,7.078996 2.722691,2.72269 3.267229,3.267228 3.267229,5.445381 1.089077,-2.178153 1.960337,-4.465213 -1.197984,-7.13345 -3.158321,-2.668237 -2.069245,-5.390927 -2.069245,-5.390927 z"
       id="path37326" />
    <path
       style="display:inline;fill:#ff5300;fill-opacity:1"
       d="m 74.564352,30.908104 c 0,0 2.466966,-1.543602 2.645834,-2.645834 0.178868,-1.102232 -1.322917,-1.659789 -1.322917,-2.645833 0,-0.986044 1.322917,-2.645835 1.322917,-2.645835 0,0 -2.466966,1.543603 -2.645834,2.645835 -0.178868,1.102232 1.322917,1.659789 1.322917,2.645833 0,0.986044 -1.322917,2.645834 -1.322917,2.645834 z"
       id="path125743-4-6-2" />
  </g>
  <metadata
     id="metadata21275">
    <rdf:RDF>
      <cc:Work
         rdf:about="">
        <dc:title>JCPS Logo</dc:title>
      </cc:Work>
    </rdf:RDF>
  </metadata>
</svg>
